<svg width="32" height="60" viewBox="0 0 32 60" fill="none" xmlns="http://www.w3.org/2000/svg">
<path d="M12 0C10.0172 0 8.4 1.61719 8.4 3.6V6C8.4 7.39219 9.40781 8.4 10.8 8.4C10.8 9.16875 10.3688 9.72188 9.6 9.8625C3.95625 11.1 0 15.975 0 21.7125V24.15C0 25.7156 1.00313 27.0656 2.4 27.5625V44.475C1.00313 44.9719 0 46.3219 0 47.8875V54C0 57.3094 2.69063 60 6 60H25.2C28.5094 60 31.2 57.3094 31.2 54V47.8875C31.2 46.3219 30.1969 44.9719 28.8 44.475V44.4H4.8V42H28.8V30H4.8V27.6H28.8V27.5625C30.1969 27.0656 31.2 25.7156 31.2 24.15V21.7125C31.2 15.975 27.2484 11.1094 21.5625 9.8625C20.8359 9.73125 20.4 9.16875 20.4 8.4C21.7922 8.4 22.8 7.39219 22.8 6V3.6C22.8 1.61719 21.1828 0 19.2 0H12Z" fill="black"/>
</svg>
